<mxfile host="Electron" modified="2024-02-07T22:19:46.684Z" agent="Mozilla/5.0 (X11; Linux x86_64) AppleWebKit/537.36 (KHTML, like Gecko) draw.io/23.0.2 Chrome/120.0.6099.109 Electron/28.1.0 Safari/537.36" etag="FPpFJJf9fVbdn5Tnjexc" version="23.0.2" type="device" pages="3">
  <diagram id="3f9QwwSYPs1zI0FzCwdm" name="Выбор">
    <mxGraphModel dx="1195" dy="725" grid="1" gridSize="10" guides="1" tooltips="1" connect="1" arrows="1" fold="1" page="1" pageScale="1" pageWidth="827" pageHeight="1169" math="0" shadow="0">
      <root>
        <mxCell id="0" />
        <mxCell id="1" parent="0" />
        <mxCell id="-dgAbzvQt4ULnvK_2v5Q-36" style="edgeStyle=orthogonalEdgeStyle;rounded=0;orthogonalLoop=1;jettySize=auto;html=1;entryX=0.5;entryY=0;entryDx=0;entryDy=0;endArrow=none;endFill=0;fontFamily=Times New Roman;fontSize=16;" parent="1" source="-dgAbzvQt4ULnvK_2v5Q-1" target="-dgAbzvQt4ULnvK_2v5Q-3" edge="1">
          <mxGeometry relative="1" as="geometry" />
        </mxCell>
        <mxCell id="-dgAbzvQt4ULnvK_2v5Q-1" value="&lt;span style=&quot;font-size: 16px;&quot;&gt;Начало&lt;/span&gt;" style="strokeWidth=1;html=1;shape=stencil(xVVNb4MwDP01HJmAaFV7nFh37GWTdnapC1FDgpysH/9+gYBaSukgl0kc8Hvwnu3YSsBSXUCFQRJJKDFg70GSfCGVXIJRZAPLFA5eRC48uXC1dCHoCjPjsCMQh61Ax2hD6oAnvjOtApcFEjc1y9ZB9Ga/qR+WZkpKK8KV1D3mhrdiwKX9Nzo7sejl1dlc2thFlXUo0SD10GtxGwcEyYe3UzzN6dPDqV9R5/uX0/d8p9jPae3TvfjeLJ7YwY1HYQ/slquJB+Zl16nPr86rmQO7ydWN2LHUImMLyNItZIec1I/cPUyygnq5B0RHl+qI1+zZ3Xw/q79TEFzeKCyW8xWAMvtC3eC3k06Xfk7nEM5ch6QM1G3o6QugHEOrE+4F5D1KnxCrG7g9+8fpLjwqvuvZNIl/LNnnjDOhND7ZBIsP5qxBR4aTpXtF+GRq91wIdzuNLcRAoEHdXdkAvw==);whiteSpace=wrap;fontFamily=Times New Roman;fontSize=16;" parent="1" vertex="1">
          <mxGeometry x="279" y="70" width="220" height="60" as="geometry" />
        </mxCell>
        <mxCell id="-dgAbzvQt4ULnvK_2v5Q-35" style="edgeStyle=orthogonalEdgeStyle;rounded=0;orthogonalLoop=1;jettySize=auto;html=1;entryX=0.5;entryY=0;entryDx=0;entryDy=0;endArrow=none;endFill=0;fontFamily=Times New Roman;fontSize=16;" parent="1" source="6yeG9l8SsPVdKXap_E7E-1" target="-dgAbzvQt4ULnvK_2v5Q-7" edge="1">
          <mxGeometry relative="1" as="geometry" />
        </mxCell>
        <mxCell id="6yeG9l8SsPVdKXap_E7E-3" style="edgeStyle=orthogonalEdgeStyle;rounded=0;orthogonalLoop=1;jettySize=auto;html=1;exitX=0.5;exitY=1;exitDx=0;exitDy=0;endArrow=none;endFill=0;fontFamily=Times New Roman;fontSize=16;" edge="1" parent="1" source="-dgAbzvQt4ULnvK_2v5Q-3" target="6yeG9l8SsPVdKXap_E7E-1">
          <mxGeometry relative="1" as="geometry" />
        </mxCell>
        <mxCell id="-dgAbzvQt4ULnvK_2v5Q-3" value="&lt;font style=&quot;font-size: 16px;&quot;&gt;Цикл от i = 0 до &lt;br style=&quot;font-size: 16px;&quot;&gt;N - 1;&lt;br style=&quot;font-size: 16px;&quot;&gt;цикл1&lt;/font&gt;" style="shape=loopLimit;whiteSpace=wrap;html=1;fontFamily=Times New Roman;fontSize=16;" parent="1" vertex="1">
          <mxGeometry x="314" y="160" width="150" height="60" as="geometry" />
        </mxCell>
        <mxCell id="-dgAbzvQt4ULnvK_2v5Q-29" style="edgeStyle=orthogonalEdgeStyle;rounded=0;orthogonalLoop=1;jettySize=auto;html=1;exitX=0.5;exitY=1;exitDx=0;exitDy=0;entryX=0.5;entryY=1;entryDx=0;entryDy=0;endArrow=none;endFill=0;fontFamily=Times New Roman;fontSize=16;" parent="1" source="-dgAbzvQt4ULnvK_2v5Q-4" target="-dgAbzvQt4ULnvK_2v5Q-11" edge="1">
          <mxGeometry relative="1" as="geometry">
            <Array as="points">
              <mxPoint x="572" y="540" />
              <mxPoint x="388" y="540" />
            </Array>
          </mxGeometry>
        </mxCell>
        <mxCell id="-dgAbzvQt4ULnvK_2v5Q-4" value="min_i := j" style="rounded=0;whiteSpace=wrap;html=1;fontFamily=Times New Roman;fontSize=16;" parent="1" vertex="1">
          <mxGeometry x="499" y="450" width="146" height="60" as="geometry" />
        </mxCell>
        <mxCell id="-dgAbzvQt4ULnvK_2v5Q-37" style="edgeStyle=orthogonalEdgeStyle;rounded=0;orthogonalLoop=1;jettySize=auto;html=1;exitX=0;exitY=0.5;exitDx=0;exitDy=0;exitPerimeter=0;entryX=1;entryY=0.5;entryDx=0;entryDy=0;entryPerimeter=0;endArrow=none;endFill=0;dashed=1;fontFamily=Times New Roman;fontSize=16;" parent="1" source="-dgAbzvQt4ULnvK_2v5Q-5" target="-dgAbzvQt4ULnvK_2v5Q-1" edge="1">
          <mxGeometry relative="1" as="geometry" />
        </mxCell>
        <mxCell id="-dgAbzvQt4ULnvK_2v5Q-39" value="" style="edgeStyle=orthogonalEdgeStyle;rounded=0;orthogonalLoop=1;jettySize=auto;html=1;dashed=1;endArrow=none;endFill=0;entryX=0.848;entryY=0.496;entryDx=0;entryDy=0;entryPerimeter=0;fontFamily=Times New Roman;fontSize=16;" parent="1" source="-dgAbzvQt4ULnvK_2v5Q-5" target="-dgAbzvQt4ULnvK_2v5Q-1" edge="1">
          <mxGeometry relative="1" as="geometry" />
        </mxCell>
        <mxCell id="-dgAbzvQt4ULnvK_2v5Q-5" value="" style="strokeWidth=1;html=1;shape=mxgraph.flowchart.annotation_2;align=left;labelPosition=right;pointerEvents=1;fontFamily=Times New Roman;fontSize=16;spacing=1;" parent="1" vertex="1">
          <mxGeometry x="510" y="40" width="50" height="120" as="geometry" />
        </mxCell>
        <mxCell id="-dgAbzvQt4ULnvK_2v5Q-6" value="&lt;div style=&quot;text-align: left; font-size: 16px;&quot;&gt;&lt;span style=&quot;font-size: 16px;&quot;&gt;Сортировка выбором.&lt;/span&gt;&lt;/div&gt;&lt;font style=&quot;font-size: 16px;&quot;&gt;&lt;div style=&quot;text-align: left; font-size: 16px;&quot;&gt;&lt;span style=&quot;font-size: 16px;&quot;&gt;Входные данные: array - массив&lt;/span&gt;&lt;/div&gt;&lt;div style=&quot;text-align: left; font-size: 16px;&quot;&gt;&lt;span style=&quot;font-size: 16px;&quot;&gt;целых чисел,&lt;/span&gt;&lt;/div&gt;&lt;div style=&quot;text-align: left; font-size: 16px;&quot;&gt;&lt;span style=&quot;font-size: 16px;&quot;&gt;N - размер массива (целое)&lt;/span&gt;&lt;/div&gt;&lt;div style=&quot;text-align: left; font-size: 16px;&quot;&gt;&lt;span style=&quot;font-size: 16px;&quot;&gt;Выходные данные: отсортированный&lt;/span&gt;&lt;/div&gt;&lt;div style=&quot;text-align: left; font-size: 16px;&quot;&gt;&lt;span style=&quot;font-size: 16px;&quot;&gt;массив целых чисел&lt;/span&gt;&lt;/div&gt;&lt;/font&gt;" style="text;html=1;align=center;verticalAlign=middle;resizable=0;points=[];autosize=1;strokeColor=none;fontFamily=Times New Roman;fontSize=16;" parent="1" vertex="1">
          <mxGeometry x="530" y="35" width="280" height="130" as="geometry" />
        </mxCell>
        <mxCell id="-dgAbzvQt4ULnvK_2v5Q-7" value="&lt;span style=&quot;font-size: 16px;&quot;&gt;Цикл по j от i+1 до n&amp;nbsp;&lt;/span&gt;" style="shape=loopLimit;whiteSpace=wrap;html=1;fontFamily=Times New Roman;fontSize=16;" parent="1" vertex="1">
          <mxGeometry x="314" y="300" width="150" height="60" as="geometry" />
        </mxCell>
        <mxCell id="-dgAbzvQt4ULnvK_2v5Q-9" style="edgeStyle=orthogonalEdgeStyle;rounded=0;orthogonalLoop=1;jettySize=auto;html=1;entryX=0.5;entryY=0;entryDx=0;entryDy=0;endArrow=none;endFill=0;fontFamily=Times New Roman;fontSize=16;" parent="1" source="-dgAbzvQt4ULnvK_2v5Q-8" target="-dgAbzvQt4ULnvK_2v5Q-4" edge="1">
          <mxGeometry relative="1" as="geometry" />
        </mxCell>
        <mxCell id="-dgAbzvQt4ULnvK_2v5Q-28" style="edgeStyle=orthogonalEdgeStyle;rounded=0;orthogonalLoop=1;jettySize=auto;html=1;exitX=0.5;exitY=0;exitDx=0;exitDy=0;exitPerimeter=0;entryX=0.5;entryY=1;entryDx=0;entryDy=0;endArrow=none;endFill=0;fontFamily=Times New Roman;fontSize=16;" parent="1" source="-dgAbzvQt4ULnvK_2v5Q-8" target="-dgAbzvQt4ULnvK_2v5Q-7" edge="1">
          <mxGeometry relative="1" as="geometry" />
        </mxCell>
        <mxCell id="-dgAbzvQt4ULnvK_2v5Q-32" style="edgeStyle=orthogonalEdgeStyle;rounded=0;orthogonalLoop=1;jettySize=auto;html=1;exitX=0;exitY=0.5;exitDx=0;exitDy=0;exitPerimeter=0;entryX=0.5;entryY=1;entryDx=0;entryDy=0;endArrow=none;endFill=0;fontFamily=Times New Roman;fontSize=16;" parent="1" source="-dgAbzvQt4ULnvK_2v5Q-8" target="-dgAbzvQt4ULnvK_2v5Q-11" edge="1">
          <mxGeometry relative="1" as="geometry">
            <Array as="points">
              <mxPoint x="200" y="420" />
              <mxPoint x="200" y="540" />
              <mxPoint x="388" y="540" />
            </Array>
          </mxGeometry>
        </mxCell>
        <mxCell id="-dgAbzvQt4ULnvK_2v5Q-8" value="&lt;font style=&quot;font-size: 16px;&quot;&gt;array[j] &amp;lt;&lt;br style=&quot;font-size: 16px;&quot;&gt;&amp;nbsp;array[min_i]?&lt;/font&gt;" style="strokeWidth=1;html=1;shape=mxgraph.flowchart.decision;whiteSpace=wrap;fontFamily=Times New Roman;fontSize=16;" parent="1" vertex="1">
          <mxGeometry x="316" y="380" width="146" height="80" as="geometry" />
        </mxCell>
        <mxCell id="-dgAbzvQt4ULnvK_2v5Q-10" value="да&lt;br style=&quot;font-size: 16px;&quot;&gt;" style="text;html=1;align=center;verticalAlign=middle;resizable=0;points=[];autosize=1;strokeColor=none;fontFamily=Times New Roman;fontSize=16;" parent="1" vertex="1">
          <mxGeometry x="494" y="385" width="40" height="30" as="geometry" />
        </mxCell>
        <mxCell id="-dgAbzvQt4ULnvK_2v5Q-13" value="" style="group;fontFamily=Times New Roman;fontSize=16;" parent="1" vertex="1" connectable="0">
          <mxGeometry x="312.5" y="570" width="153" height="60" as="geometry" />
        </mxCell>
        <mxCell id="-dgAbzvQt4ULnvK_2v5Q-11" value="" style="shape=loopLimit;whiteSpace=wrap;html=1;rotation=-180;fontFamily=Times New Roman;fontSize=16;" parent="-dgAbzvQt4ULnvK_2v5Q-13" vertex="1">
          <mxGeometry width="150" height="60" as="geometry" />
        </mxCell>
        <mxCell id="-dgAbzvQt4ULnvK_2v5Q-12" value="&lt;span style=&quot;font-size: 16px;&quot;&gt;j := j + 1&lt;/span&gt;" style="text;html=1;align=center;verticalAlign=middle;resizable=0;points=[];autosize=1;strokeColor=none;fontFamily=Times New Roman;fontSize=16;" parent="-dgAbzvQt4ULnvK_2v5Q-13" vertex="1">
          <mxGeometry x="38" y="15" width="80" height="30" as="geometry" />
        </mxCell>
        <mxCell id="-dgAbzvQt4ULnvK_2v5Q-14" value="" style="group;fontFamily=Times New Roman;fontSize=16;" parent="1" vertex="1" connectable="0">
          <mxGeometry x="314.5" y="730" width="152" height="60" as="geometry" />
        </mxCell>
        <mxCell id="-dgAbzvQt4ULnvK_2v5Q-15" value="" style="shape=loopLimit;whiteSpace=wrap;html=1;rotation=-180;fontFamily=Times New Roman;fontSize=16;" parent="-dgAbzvQt4ULnvK_2v5Q-14" vertex="1">
          <mxGeometry width="149.01960784313727" height="60" as="geometry" />
        </mxCell>
        <mxCell id="-dgAbzvQt4ULnvK_2v5Q-16" value="&lt;span style=&quot;font-size: 16px;&quot;&gt;i := i + 1&lt;/span&gt;" style="text;html=1;align=center;verticalAlign=middle;resizable=0;points=[];autosize=1;strokeColor=none;fontFamily=Times New Roman;fontSize=16;" parent="-dgAbzvQt4ULnvK_2v5Q-14" vertex="1">
          <mxGeometry x="37.88235294117647" y="15" width="80" height="30" as="geometry" />
        </mxCell>
        <mxCell id="-dgAbzvQt4ULnvK_2v5Q-24" style="edgeStyle=orthogonalEdgeStyle;rounded=0;orthogonalLoop=1;jettySize=auto;html=1;exitX=0.5;exitY=0;exitDx=0;exitDy=0;entryX=0.5;entryY=0;entryDx=0;entryDy=0;entryPerimeter=0;endArrow=none;endFill=0;fontFamily=Times New Roman;fontSize=16;" parent="1" source="-dgAbzvQt4ULnvK_2v5Q-15" edge="1">
          <mxGeometry relative="1" as="geometry">
            <mxPoint x="387.51" y="810" as="targetPoint" />
          </mxGeometry>
        </mxCell>
        <mxCell id="-dgAbzvQt4ULnvK_2v5Q-38" value="&lt;span style=&quot;font-size: 16px;&quot;&gt;Конец&lt;/span&gt;" style="strokeWidth=1;html=1;shape=stencil(xVVNb4MwDP01HJmAaFV7nFh37GWTdnapC1FDgpysH/9+gYBaSukgl0kc8Hvwnu3YSsBSXUCFQRJJKDFg70GSfCGVXIJRZAPLFA5eRC48uXC1dCHoCjPjsCMQh61Ax2hD6oAnvjOtApcFEjc1y9ZB9Ga/qR+WZkpKK8KV1D3mhrdiwKX9Nzo7sejl1dlc2thFlXUo0SD10GtxGwcEyYe3UzzN6dPDqV9R5/uX0/d8p9jPae3TvfjeLJ7YwY1HYQ/slquJB+Zl16nPr86rmQO7ydWN2LHUImMLyNItZIec1I/cPUyygnq5B0RHl+qI1+zZ3Xw/q79TEFzeKCyW8xWAMvtC3eC3k06Xfk7nEM5ch6QM1G3o6QugHEOrE+4F5D1KnxCrG7g9+8fpLjwqvuvZNIl/LNnnjDOhND7ZBIsP5qxBR4aTpXtF+GRq91wIdzuNLcRAoEHdXdkAvw==);whiteSpace=wrap;fontFamily=Times New Roman;fontSize=16;" parent="1" vertex="1">
          <mxGeometry x="279" y="810" width="220" height="60" as="geometry" />
        </mxCell>
        <mxCell id="6yeG9l8SsPVdKXap_E7E-1" value="&lt;span style=&quot;font-size: 16px;&quot;&gt;min_i := i&lt;/span&gt;" style="rounded=0;whiteSpace=wrap;html=1;fontFamily=Times New Roman;fontSize=16;" vertex="1" parent="1">
          <mxGeometry x="316" y="230" width="146" height="60" as="geometry" />
        </mxCell>
        <mxCell id="6yeG9l8SsPVdKXap_E7E-8" style="edgeStyle=orthogonalEdgeStyle;rounded=0;orthogonalLoop=1;jettySize=auto;html=1;exitX=0.5;exitY=1;exitDx=0;exitDy=0;entryX=0.5;entryY=1;entryDx=0;entryDy=0;endArrow=none;endFill=0;fontFamily=Times New Roman;fontSize=16;" edge="1" parent="1" source="6yeG9l8SsPVdKXap_E7E-5" target="-dgAbzvQt4ULnvK_2v5Q-15">
          <mxGeometry relative="1" as="geometry" />
        </mxCell>
        <mxCell id="6yeG9l8SsPVdKXap_E7E-5" value="Обмен значений&lt;br style=&quot;font-size: 16px;&quot;&gt;array[i] и array[min_i]" style="rounded=0;whiteSpace=wrap;html=1;fontFamily=Times New Roman;fontSize=16;" vertex="1" parent="1">
          <mxGeometry x="314.5" y="650" width="146" height="60" as="geometry" />
        </mxCell>
        <mxCell id="6yeG9l8SsPVdKXap_E7E-6" style="edgeStyle=orthogonalEdgeStyle;rounded=0;orthogonalLoop=1;jettySize=auto;html=1;exitX=0.5;exitY=0;exitDx=0;exitDy=0;entryX=0.5;entryY=0;entryDx=0;entryDy=0;endArrow=none;endFill=0;fontFamily=Times New Roman;fontSize=16;" edge="1" parent="1" source="-dgAbzvQt4ULnvK_2v5Q-11" target="6yeG9l8SsPVdKXap_E7E-5">
          <mxGeometry relative="1" as="geometry" />
        </mxCell>
      </root>
    </mxGraphModel>
  </diagram>
  <diagram id="MazqlIZE_Ca53F0Nm9e_" name="Быстрая">
    <mxGraphModel dx="2261" dy="870" grid="1" gridSize="10" guides="1" tooltips="1" connect="1" arrows="1" fold="1" page="1" pageScale="1" pageWidth="827" pageHeight="1169" math="0" shadow="0">
      <root>
        <mxCell id="u4W8JW2jcw6BL1xKexpF-0" />
        <mxCell id="u4W8JW2jcw6BL1xKexpF-1" parent="u4W8JW2jcw6BL1xKexpF-0" />
        <mxCell id="BnHpBqEpI4FGYoRIMQ8p-14" value="Начало" style="rounded=1;whiteSpace=wrap;html=1;arcSize=50;fontFamily=Times New Roman;fontSize=15;" vertex="1" parent="u4W8JW2jcw6BL1xKexpF-1">
          <mxGeometry x="285" y="70" width="210" height="60" as="geometry" />
        </mxCell>
        <mxCell id="escH1NnZ0z8jq-1vhIXF-1" value="" style="edgeStyle=orthogonalEdgeStyle;rounded=0;orthogonalLoop=1;jettySize=auto;html=1;dashed=1;endArrow=none;endFill=0;entryX=0.848;entryY=0.496;entryDx=0;entryDy=0;entryPerimeter=0;fontFamily=Times New Roman;fontSize=15;" parent="u4W8JW2jcw6BL1xKexpF-1" edge="1">
          <mxGeometry relative="1" as="geometry">
            <mxPoint x="510" y="100.00000000000011" as="sourcePoint" />
            <mxPoint x="487.44000000000005" y="99.7600000000001" as="targetPoint" />
          </mxGeometry>
        </mxCell>
        <mxCell id="escH1NnZ0z8jq-1vhIXF-2" value="&lt;div style=&quot;text-align: left; font-size: 14px;&quot;&gt;&lt;span style=&quot;font-size: 14px;&quot;&gt;Быстрая сортировка (БС).&lt;/span&gt;&lt;/div&gt;&lt;font style=&quot;font-size: 14px;&quot;&gt;&lt;div style=&quot;text-align: left; font-size: 14px;&quot;&gt;&lt;span style=&quot;font-size: 14px;&quot;&gt;Входные данные:&amp;nbsp;&lt;/span&gt;&lt;/div&gt;&lt;div style=&quot;text-align: left; font-size: 14px;&quot;&gt;&lt;span style=&quot;font-size: 14px;&quot;&gt;array - массив&amp;nbsp;&lt;/span&gt;&lt;span style=&quot;background-color: initial; font-size: 14px;&quot;&gt;целых чисел,&lt;/span&gt;&lt;/div&gt;&lt;div style=&quot;text-align: left; font-size: 14px;&quot;&gt;&lt;span style=&quot;font-size: 14px;&quot;&gt;low - нижний индекс массива,&lt;/span&gt;&lt;/div&gt;&lt;div style=&quot;text-align: left; font-size: 14px;&quot;&gt;&lt;span style=&quot;font-size: 14px;&quot;&gt;high - верхний индекс массива&lt;/span&gt;&lt;/div&gt;&lt;div style=&quot;text-align: left; font-size: 14px;&quot;&gt;&lt;span style=&quot;font-size: 14px;&quot;&gt;Выходные данные: отсортированный&lt;/span&gt;&lt;/div&gt;&lt;div style=&quot;text-align: left; font-size: 14px;&quot;&gt;&lt;span style=&quot;font-size: 14px;&quot;&gt;массив целых чисел&lt;/span&gt;&lt;/div&gt;&lt;/font&gt;" style="text;html=1;align=center;verticalAlign=middle;resizable=0;points=[];autosize=1;strokeColor=none;fontFamily=Times New Roman;fontSize=14;" parent="u4W8JW2jcw6BL1xKexpF-1" vertex="1">
          <mxGeometry x="530" y="35" width="250" height="130" as="geometry" />
        </mxCell>
        <mxCell id="K2yse5BL2X8jRYvxI6nf-0" value="" style="strokeWidth=1;html=1;shape=mxgraph.flowchart.annotation_2;align=left;labelPosition=right;pointerEvents=1;fontFamily=Times New Roman;fontSize=15;" parent="u4W8JW2jcw6BL1xKexpF-1" vertex="1">
          <mxGeometry x="510" y="40" width="50" height="120" as="geometry" />
        </mxCell>
        <mxCell id="Azb66aeJA8d8vzKg7FQl-8" style="edgeStyle=orthogonalEdgeStyle;rounded=0;orthogonalLoop=1;jettySize=auto;html=1;exitX=0.5;exitY=1;exitDx=0;exitDy=0;entryX=0.5;entryY=0;entryDx=0;entryDy=0;endArrow=none;endFill=0;" parent="u4W8JW2jcw6BL1xKexpF-1" source="GXJ46AXA96LiF7tt_NYG-0" target="3IMk8cEELTKe3vllj24T-0" edge="1">
          <mxGeometry relative="1" as="geometry" />
        </mxCell>
        <mxCell id="GXJ46AXA96LiF7tt_NYG-0" value="&lt;font style=&quot;font-size: 14px&quot;&gt;Цикл от i = 1 до &lt;br&gt;N - 1; цикл1&lt;/font&gt;" style="shape=loopLimit;whiteSpace=wrap;html=1;" parent="u4W8JW2jcw6BL1xKexpF-1" vertex="1">
          <mxGeometry x="-506.03" y="230" width="146" height="60" as="geometry" />
        </mxCell>
        <mxCell id="esK_fhXN_T0fIrZUu6RA-1" style="edgeStyle=orthogonalEdgeStyle;rounded=0;orthogonalLoop=1;jettySize=auto;html=1;exitX=0.5;exitY=1;exitDx=0;exitDy=0;entryX=0.5;entryY=0;entryDx=0;entryDy=0;endArrow=none;endFill=0;" parent="u4W8JW2jcw6BL1xKexpF-1" source="3IMk8cEELTKe3vllj24T-0" target="esK_fhXN_T0fIrZUu6RA-0" edge="1">
          <mxGeometry relative="1" as="geometry" />
        </mxCell>
        <mxCell id="3IMk8cEELTKe3vllj24T-0" value="&lt;span style=&quot;font-size: 14px&quot;&gt;&amp;nbsp;Присвоить select_item значение array[i]&lt;/span&gt;" style="rounded=0;whiteSpace=wrap;html=1;" parent="u4W8JW2jcw6BL1xKexpF-1" vertex="1">
          <mxGeometry x="-506.03" y="320" width="146" height="60" as="geometry" />
        </mxCell>
        <mxCell id="Azb66aeJA8d8vzKg7FQl-14" style="edgeStyle=orthogonalEdgeStyle;rounded=0;orthogonalLoop=1;jettySize=auto;html=1;exitX=0;exitY=0.5;exitDx=0;exitDy=0;exitPerimeter=0;entryX=0.5;entryY=0;entryDx=0;entryDy=0;endArrow=blockThin;endFill=1;" parent="u4W8JW2jcw6BL1xKexpF-1" source="Azb66aeJA8d8vzKg7FQl-0" target="Azb66aeJA8d8vzKg7FQl-13" edge="1">
          <mxGeometry relative="1" as="geometry">
            <Array as="points">
              <mxPoint x="-580.03" y="540" />
              <mxPoint x="-580.03" y="810" />
              <mxPoint x="-431.03" y="810" />
            </Array>
          </mxGeometry>
        </mxCell>
        <mxCell id="esK_fhXN_T0fIrZUu6RA-3" style="edgeStyle=orthogonalEdgeStyle;rounded=0;orthogonalLoop=1;jettySize=auto;html=1;exitX=0.5;exitY=1;exitDx=0;exitDy=0;exitPerimeter=0;entryX=0.5;entryY=0;entryDx=0;entryDy=0;endArrow=none;endFill=0;" parent="u4W8JW2jcw6BL1xKexpF-1" source="Azb66aeJA8d8vzKg7FQl-0" target="Azb66aeJA8d8vzKg7FQl-9" edge="1">
          <mxGeometry relative="1" as="geometry" />
        </mxCell>
        <mxCell id="Azb66aeJA8d8vzKg7FQl-0" value="&lt;span style=&quot;font-size: 14px&quot;&gt;j &amp;gt;= 0 и &lt;br&gt;select_item &amp;lt; &lt;br&gt;array[j]?&lt;/span&gt;" style="strokeWidth=1;html=1;shape=mxgraph.flowchart.decision;whiteSpace=wrap;" parent="u4W8JW2jcw6BL1xKexpF-1" vertex="1">
          <mxGeometry x="-504.03" y="500" width="146" height="80" as="geometry" />
        </mxCell>
        <mxCell id="Azb66aeJA8d8vzKg7FQl-4" style="edgeStyle=orthogonalEdgeStyle;rounded=0;orthogonalLoop=1;jettySize=auto;html=1;exitX=0.5;exitY=1;exitDx=0;exitDy=0;entryX=0.5;entryY=0;entryDx=0;entryDy=0;endArrow=none;endFill=0;" parent="u4W8JW2jcw6BL1xKexpF-1" edge="1">
          <mxGeometry relative="1" as="geometry">
            <mxPoint x="-431.03" y="670" as="sourcePoint" />
            <mxPoint x="-431.03" y="700" as="targetPoint" />
          </mxGeometry>
        </mxCell>
        <mxCell id="Azb66aeJA8d8vzKg7FQl-6" value="&amp;nbsp;да" style="text;html=1;align=center;verticalAlign=middle;resizable=0;points=[];autosize=1;strokeColor=none;" parent="u4W8JW2jcw6BL1xKexpF-1" vertex="1">
          <mxGeometry x="-421.03" y="580" width="30" height="20" as="geometry" />
        </mxCell>
        <mxCell id="Azb66aeJA8d8vzKg7FQl-9" value="&lt;span style=&quot;font-size: 14px&quot;&gt;Присвоить array[j+1] значение array[j]&lt;/span&gt;" style="rounded=0;whiteSpace=wrap;html=1;" parent="u4W8JW2jcw6BL1xKexpF-1" vertex="1">
          <mxGeometry x="-504.03" y="610" width="146" height="60" as="geometry" />
        </mxCell>
        <mxCell id="Azb66aeJA8d8vzKg7FQl-12" style="edgeStyle=orthogonalEdgeStyle;rounded=0;orthogonalLoop=1;jettySize=auto;html=1;exitX=0.5;exitY=1;exitDx=0;exitDy=0;endArrow=blockThin;endFill=1;" parent="u4W8JW2jcw6BL1xKexpF-1" source="Azb66aeJA8d8vzKg7FQl-11" edge="1">
          <mxGeometry relative="1" as="geometry">
            <mxPoint x="-431.03" y="500" as="targetPoint" />
            <Array as="points">
              <mxPoint x="-431.03" y="790" />
              <mxPoint x="-300.03" y="790" />
              <mxPoint x="-300.03" y="480" />
              <mxPoint x="-431.03" y="480" />
            </Array>
          </mxGeometry>
        </mxCell>
        <mxCell id="Azb66aeJA8d8vzKg7FQl-11" value="&lt;span style=&quot;font-size: 14px&quot;&gt;Декремент j&lt;/span&gt;" style="rounded=0;whiteSpace=wrap;html=1;" parent="u4W8JW2jcw6BL1xKexpF-1" vertex="1">
          <mxGeometry x="-504.03" y="700" width="146" height="60" as="geometry" />
        </mxCell>
        <mxCell id="Azb66aeJA8d8vzKg7FQl-18" style="edgeStyle=orthogonalEdgeStyle;rounded=0;orthogonalLoop=1;jettySize=auto;html=1;exitX=0.5;exitY=1;exitDx=0;exitDy=0;entryX=0.5;entryY=1;entryDx=0;entryDy=0;endArrow=none;endFill=0;" parent="u4W8JW2jcw6BL1xKexpF-1" source="Azb66aeJA8d8vzKg7FQl-13" target="Azb66aeJA8d8vzKg7FQl-15" edge="1">
          <mxGeometry relative="1" as="geometry" />
        </mxCell>
        <mxCell id="Azb66aeJA8d8vzKg7FQl-13" value="&lt;span style=&quot;font-size: 14px&quot;&gt;Присвоить array[j+1] значение select_item&lt;/span&gt;" style="rounded=0;whiteSpace=wrap;html=1;" parent="u4W8JW2jcw6BL1xKexpF-1" vertex="1">
          <mxGeometry x="-504.03" y="840" width="146" height="60" as="geometry" />
        </mxCell>
        <mxCell id="Azb66aeJA8d8vzKg7FQl-17" value="" style="group" parent="u4W8JW2jcw6BL1xKexpF-1" vertex="1" connectable="0">
          <mxGeometry x="-504.03" y="930" width="146" height="60" as="geometry" />
        </mxCell>
        <mxCell id="Azb66aeJA8d8vzKg7FQl-15" value="" style="shape=loopLimit;whiteSpace=wrap;html=1;rotation=-180;" parent="Azb66aeJA8d8vzKg7FQl-17" vertex="1">
          <mxGeometry width="146" height="60" as="geometry" />
        </mxCell>
        <mxCell id="Azb66aeJA8d8vzKg7FQl-16" value="&lt;span style=&quot;font-size: 14px ; background-color: rgb(255 , 255 , 255)&quot;&gt;цикл1&lt;/span&gt;" style="text;html=1;align=center;verticalAlign=middle;resizable=0;points=[];autosize=1;strokeColor=none;" parent="Azb66aeJA8d8vzKg7FQl-17" vertex="1">
          <mxGeometry x="48" y="20" width="50" height="20" as="geometry" />
        </mxCell>
        <mxCell id="Azb66aeJA8d8vzKg7FQl-20" style="edgeStyle=orthogonalEdgeStyle;rounded=0;orthogonalLoop=1;jettySize=auto;html=1;exitX=0.5;exitY=0;exitDx=0;exitDy=0;exitPerimeter=0;entryX=0.5;entryY=0;entryDx=0;entryDy=0;endArrow=none;endFill=0;" parent="u4W8JW2jcw6BL1xKexpF-1" source="Azb66aeJA8d8vzKg7FQl-19" target="Azb66aeJA8d8vzKg7FQl-15" edge="1">
          <mxGeometry relative="1" as="geometry" />
        </mxCell>
        <mxCell id="Azb66aeJA8d8vzKg7FQl-19" value="&lt;span style=&quot;font-size: 14px&quot;&gt;Конец&lt;/span&gt;" style="strokeWidth=1;html=1;shape=stencil(xVVNb4MwDP01HJmAaFV7nFh37GWTdnapC1FDgpysH/9+gYBaSukgl0kc8Hvwnu3YSsBSXUCFQRJJKDFg70GSfCGVXIJRZAPLFA5eRC48uXC1dCHoCjPjsCMQh61Ax2hD6oAnvjOtApcFEjc1y9ZB9Ga/qR+WZkpKK8KV1D3mhrdiwKX9Nzo7sejl1dlc2thFlXUo0SD10GtxGwcEyYe3UzzN6dPDqV9R5/uX0/d8p9jPae3TvfjeLJ7YwY1HYQ/slquJB+Zl16nPr86rmQO7ydWN2LHUImMLyNItZIec1I/cPUyygnq5B0RHl+qI1+zZ3Xw/q79TEFzeKCyW8xWAMvtC3eC3k06Xfk7nEM5ch6QM1G3o6QugHEOrE+4F5D1KnxCrG7g9+8fpLjwqvuvZNIl/LNnnjDOhND7ZBIsP5qxBR4aTpXtF+GRq91wIdzuNLcRAoEHdXdkAvw==);whiteSpace=wrap;" parent="u4W8JW2jcw6BL1xKexpF-1" vertex="1">
          <mxGeometry x="-536.53" y="1020" width="211" height="60" as="geometry" />
        </mxCell>
        <mxCell id="esK_fhXN_T0fIrZUu6RA-2" style="edgeStyle=orthogonalEdgeStyle;rounded=0;orthogonalLoop=1;jettySize=auto;html=1;exitX=0.5;exitY=1;exitDx=0;exitDy=0;entryX=0.5;entryY=0;entryDx=0;entryDy=0;entryPerimeter=0;endArrow=none;endFill=0;" parent="u4W8JW2jcw6BL1xKexpF-1" source="esK_fhXN_T0fIrZUu6RA-0" target="Azb66aeJA8d8vzKg7FQl-0" edge="1">
          <mxGeometry relative="1" as="geometry" />
        </mxCell>
        <mxCell id="esK_fhXN_T0fIrZUu6RA-0" value="&lt;span style=&quot;font-size: 14px&quot;&gt;Присвоить j значение i - 1&lt;/span&gt;" style="rounded=0;whiteSpace=wrap;html=1;" parent="u4W8JW2jcw6BL1xKexpF-1" vertex="1">
          <mxGeometry x="-504.03" y="400" width="146" height="60" as="geometry" />
        </mxCell>
        <mxCell id="BnHpBqEpI4FGYoRIMQ8p-1" style="edgeStyle=orthogonalEdgeStyle;rounded=0;orthogonalLoop=1;jettySize=auto;html=1;exitX=0.5;exitY=1;exitDx=0;exitDy=0;exitPerimeter=0;entryX=0.5;entryY=0;entryDx=0;entryDy=0;endArrow=none;endFill=0;fontFamily=Times New Roman;fontSize=15;" edge="1" parent="u4W8JW2jcw6BL1xKexpF-1" source="EYAIP-WF1TgXF6qF4L6D-0" target="BnHpBqEpI4FGYoRIMQ8p-4">
          <mxGeometry relative="1" as="geometry">
            <mxPoint x="415.75" y="250" as="targetPoint" />
          </mxGeometry>
        </mxCell>
        <mxCell id="BnHpBqEpI4FGYoRIMQ8p-20" style="edgeStyle=orthogonalEdgeStyle;rounded=0;orthogonalLoop=1;jettySize=auto;html=1;exitX=0;exitY=0.5;exitDx=0;exitDy=0;exitPerimeter=0;fontFamily=Times New Roman;fontSize=15;" edge="1" parent="u4W8JW2jcw6BL1xKexpF-1" source="EYAIP-WF1TgXF6qF4L6D-0">
          <mxGeometry relative="1" as="geometry">
            <mxPoint x="390" y="520" as="targetPoint" />
            <Array as="points">
              <mxPoint x="250" y="190" />
              <mxPoint x="250" y="520" />
            </Array>
          </mxGeometry>
        </mxCell>
        <mxCell id="EYAIP-WF1TgXF6qF4L6D-0" value="&lt;span style=&quot;font-size: 15px;&quot;&gt;low &amp;lt; high?&lt;/span&gt;" style="strokeWidth=1;html=1;shape=mxgraph.flowchart.decision;whiteSpace=wrap;fontFamily=Times New Roman;fontSize=15;" vertex="1" parent="u4W8JW2jcw6BL1xKexpF-1">
          <mxGeometry x="290" y="150" width="200" height="80" as="geometry" />
        </mxCell>
        <mxCell id="EYAIP-WF1TgXF6qF4L6D-1" style="edgeStyle=orthogonalEdgeStyle;rounded=0;orthogonalLoop=1;jettySize=auto;html=1;entryX=0.5;entryY=0;entryDx=0;entryDy=0;entryPerimeter=0;endArrow=none;endFill=0;exitX=0.5;exitY=1;exitDx=0;exitDy=0;fontFamily=Times New Roman;fontSize=15;" edge="1" parent="u4W8JW2jcw6BL1xKexpF-1" source="BnHpBqEpI4FGYoRIMQ8p-14" target="EYAIP-WF1TgXF6qF4L6D-0">
          <mxGeometry relative="1" as="geometry">
            <mxPoint x="390" y="140" as="sourcePoint" />
          </mxGeometry>
        </mxCell>
        <mxCell id="BnHpBqEpI4FGYoRIMQ8p-2" value="да" style="text;html=1;align=center;verticalAlign=middle;resizable=0;points=[];autosize=1;strokeColor=none;fillColor=none;fontFamily=Times New Roman;fontSize=15;" vertex="1" parent="u4W8JW2jcw6BL1xKexpF-1">
          <mxGeometry x="400" y="220" width="40" height="30" as="geometry" />
        </mxCell>
        <mxCell id="BnHpBqEpI4FGYoRIMQ8p-9" style="edgeStyle=orthogonalEdgeStyle;rounded=0;orthogonalLoop=1;jettySize=auto;html=1;exitX=0.5;exitY=1;exitDx=0;exitDy=0;entryX=0.5;entryY=0;entryDx=0;entryDy=0;endArrow=none;endFill=0;fontFamily=Times New Roman;fontSize=15;" edge="1" parent="u4W8JW2jcw6BL1xKexpF-1" source="BnHpBqEpI4FGYoRIMQ8p-4" target="BnHpBqEpI4FGYoRIMQ8p-6">
          <mxGeometry relative="1" as="geometry" />
        </mxCell>
        <mxCell id="BnHpBqEpI4FGYoRIMQ8p-4" value="&lt;span style=&quot;color: rgb(0, 0, 0); font-style: normal; font-variant-ligatures: normal; font-variant-caps: normal; font-weight: 400; letter-spacing: normal; orphans: 2; text-align: center; text-indent: 0px; text-transform: none; widows: 2; word-spacing: 0px; -webkit-text-stroke-width: 0px; background-color: rgb(251, 251, 251); text-decoration-thickness: initial; text-decoration-style: initial; text-decoration-color: initial; float: none; display: inline !important;&quot;&gt;&lt;font style=&quot;font-size: 14px;&quot;&gt;Разделение массива на две части с распределением его элементов&lt;/font&gt;&lt;/span&gt;" style="shape=process;whiteSpace=wrap;html=1;backgroundOutline=1;fontFamily=Times New Roman;fontSize=15;" vertex="1" parent="u4W8JW2jcw6BL1xKexpF-1">
          <mxGeometry x="285.5" y="250" width="208.5" height="70" as="geometry" />
        </mxCell>
        <mxCell id="BnHpBqEpI4FGYoRIMQ8p-16" style="edgeStyle=orthogonalEdgeStyle;rounded=0;orthogonalLoop=1;jettySize=auto;html=1;exitX=0;exitY=0.5;exitDx=0;exitDy=0;exitPerimeter=0;entryX=1;entryY=0.5;entryDx=0;entryDy=0;endArrow=none;endFill=0;dashed=1;fontFamily=Times New Roman;fontSize=15;" edge="1" parent="u4W8JW2jcw6BL1xKexpF-1" source="BnHpBqEpI4FGYoRIMQ8p-5" target="BnHpBqEpI4FGYoRIMQ8p-4">
          <mxGeometry relative="1" as="geometry" />
        </mxCell>
        <mxCell id="BnHpBqEpI4FGYoRIMQ8p-5" value="Возвращается &lt;br style=&quot;font-size: 15px;&quot;&gt;pivot -- индекс опорного&lt;br style=&quot;font-size: 15px;&quot;&gt;элемента" style="strokeWidth=1;html=1;shape=mxgraph.flowchart.annotation_2;align=left;labelPosition=right;pointerEvents=1;fontFamily=Times New Roman;fontSize=15;" vertex="1" parent="u4W8JW2jcw6BL1xKexpF-1">
          <mxGeometry x="525" y="250" width="20" height="70" as="geometry" />
        </mxCell>
        <mxCell id="BnHpBqEpI4FGYoRIMQ8p-8" style="edgeStyle=orthogonalEdgeStyle;rounded=0;orthogonalLoop=1;jettySize=auto;html=1;exitX=0.5;exitY=1;exitDx=0;exitDy=0;entryX=0.5;entryY=0;entryDx=0;entryDy=0;endArrow=none;endFill=0;fontFamily=Times New Roman;fontSize=15;" edge="1" parent="u4W8JW2jcw6BL1xKexpF-1" source="BnHpBqEpI4FGYoRIMQ8p-6" target="BnHpBqEpI4FGYoRIMQ8p-7">
          <mxGeometry relative="1" as="geometry" />
        </mxCell>
        <mxCell id="BnHpBqEpI4FGYoRIMQ8p-6" value="БС(array, low, pi-1)" style="shape=process;whiteSpace=wrap;html=1;backgroundOutline=1;fontFamily=Times New Roman;fontSize=15;" vertex="1" parent="u4W8JW2jcw6BL1xKexpF-1">
          <mxGeometry x="287.5" y="340" width="208.5" height="70" as="geometry" />
        </mxCell>
        <mxCell id="BnHpBqEpI4FGYoRIMQ8p-19" style="edgeStyle=orthogonalEdgeStyle;rounded=0;orthogonalLoop=1;jettySize=auto;html=1;exitX=0.5;exitY=1;exitDx=0;exitDy=0;entryX=0.5;entryY=0;entryDx=0;entryDy=0;endArrow=none;endFill=0;fontFamily=Times New Roman;fontSize=15;" edge="1" parent="u4W8JW2jcw6BL1xKexpF-1" source="BnHpBqEpI4FGYoRIMQ8p-7" target="BnHpBqEpI4FGYoRIMQ8p-15">
          <mxGeometry relative="1" as="geometry" />
        </mxCell>
        <mxCell id="BnHpBqEpI4FGYoRIMQ8p-7" value="БС(array, pi+1, high)" style="shape=process;whiteSpace=wrap;html=1;backgroundOutline=1;fontFamily=Times New Roman;fontSize=15;" vertex="1" parent="u4W8JW2jcw6BL1xKexpF-1">
          <mxGeometry x="287.75" y="430" width="208.5" height="70" as="geometry" />
        </mxCell>
        <mxCell id="BnHpBqEpI4FGYoRIMQ8p-15" value="Конец" style="rounded=1;whiteSpace=wrap;html=1;arcSize=50;fontFamily=Times New Roman;fontSize=15;" vertex="1" parent="u4W8JW2jcw6BL1xKexpF-1">
          <mxGeometry x="287.5" y="540" width="210" height="60" as="geometry" />
        </mxCell>
        <mxCell id="BnHpBqEpI4FGYoRIMQ8p-29" style="edgeStyle=orthogonalEdgeStyle;rounded=0;orthogonalLoop=1;jettySize=auto;html=1;exitX=0.5;exitY=1;exitDx=0;exitDy=0;entryX=0.5;entryY=0;entryDx=0;entryDy=0;endArrow=none;endFill=0;fontFamily=Times New Roman;fontSize=16;" edge="1" parent="u4W8JW2jcw6BL1xKexpF-1" source="BnHpBqEpI4FGYoRIMQ8p-21" target="BnHpBqEpI4FGYoRIMQ8p-27">
          <mxGeometry relative="1" as="geometry" />
        </mxCell>
        <mxCell id="BnHpBqEpI4FGYoRIMQ8p-21" value="Начало" style="rounded=1;whiteSpace=wrap;html=1;arcSize=50;fontFamily=Times New Roman;fontSize=16;" vertex="1" parent="u4W8JW2jcw6BL1xKexpF-1">
          <mxGeometry x="778" y="59" width="210" height="60" as="geometry" />
        </mxCell>
        <mxCell id="BnHpBqEpI4FGYoRIMQ8p-24" style="edgeStyle=orthogonalEdgeStyle;rounded=0;orthogonalLoop=1;jettySize=auto;html=1;exitX=0;exitY=0.5;exitDx=0;exitDy=0;exitPerimeter=0;entryX=1;entryY=0.5;entryDx=0;entryDy=0;endArrow=none;endFill=0;dashed=1;fontFamily=Times New Roman;fontSize=16;" edge="1" parent="u4W8JW2jcw6BL1xKexpF-1" source="BnHpBqEpI4FGYoRIMQ8p-22" target="BnHpBqEpI4FGYoRIMQ8p-21">
          <mxGeometry relative="1" as="geometry" />
        </mxCell>
        <mxCell id="BnHpBqEpI4FGYoRIMQ8p-22" value="" style="strokeWidth=1;html=1;shape=mxgraph.flowchart.annotation_2;align=left;labelPosition=right;pointerEvents=1;fontFamily=Times New Roman;fontSize=16;" vertex="1" parent="u4W8JW2jcw6BL1xKexpF-1">
          <mxGeometry x="1008" y="23" width="50" height="137" as="geometry" />
        </mxCell>
        <mxCell id="BnHpBqEpI4FGYoRIMQ8p-25" value="&lt;font style=&quot;font-size: 14px;&quot;&gt;Определение позиции&lt;br style=&quot;border-color: var(--border-color); font-size: 14px;&quot;&gt;&lt;span style=&quot;font-size: 14px;&quot;&gt;опорного элемента.&lt;/span&gt;&lt;br style=&quot;border-color: var(--border-color); font-size: 14px;&quot;&gt;&lt;span style=&quot;font-size: 14px;&quot;&gt;Вход:&lt;/span&gt;&lt;br style=&quot;border-color: var(--border-color); font-size: 14px;&quot;&gt;&lt;span style=&quot;font-size: 14px;&quot;&gt;array -- массив целых чисел&lt;br style=&quot;font-size: 14px;&quot;&gt;low -- нижний индекс массива&lt;br style=&quot;font-size: 14px;&quot;&gt;high -- верхний индекс массива&lt;br style=&quot;font-size: 14px;&quot;&gt;Выход: i -- индекс опорного &lt;br style=&quot;font-size: 14px;&quot;&gt;элемента&lt;br style=&quot;font-size: 14px;&quot;&gt;&lt;/span&gt;&lt;/font&gt;" style="text;html=1;align=left;verticalAlign=middle;resizable=0;points=[];autosize=1;strokeColor=none;fillColor=none;fontFamily=Times New Roman;fontSize=14;" vertex="1" parent="u4W8JW2jcw6BL1xKexpF-1">
          <mxGeometry x="1038" y="14" width="210" height="150" as="geometry" />
        </mxCell>
        <mxCell id="BnHpBqEpI4FGYoRIMQ8p-26" value="&lt;font style=&quot;font-size: 16px;&quot;&gt;Цикл &lt;br style=&quot;font-size: 16px;&quot;&gt;от j := low до&amp;nbsp;high;&lt;br style=&quot;font-size: 16px;&quot;&gt;&lt;/font&gt;" style="shape=loopLimit;whiteSpace=wrap;html=1;fontFamily=Times New Roman;fontSize=16;" vertex="1" parent="u4W8JW2jcw6BL1xKexpF-1">
          <mxGeometry x="778" y="299" width="210" height="60" as="geometry" />
        </mxCell>
        <mxCell id="BnHpBqEpI4FGYoRIMQ8p-33" style="edgeStyle=orthogonalEdgeStyle;rounded=0;orthogonalLoop=1;jettySize=auto;html=1;exitX=0.5;exitY=1;exitDx=0;exitDy=0;entryX=0.5;entryY=0;entryDx=0;entryDy=0;endArrow=none;endFill=0;fontFamily=Times New Roman;fontSize=16;" edge="1" parent="u4W8JW2jcw6BL1xKexpF-1" source="BnHpBqEpI4FGYoRIMQ8p-27" target="BnHpBqEpI4FGYoRIMQ8p-28">
          <mxGeometry relative="1" as="geometry" />
        </mxCell>
        <mxCell id="BnHpBqEpI4FGYoRIMQ8p-27" value="&lt;span style=&quot;font-size: 16px;&quot;&gt;Опорный элемент&lt;br style=&quot;font-size: 16px;&quot;&gt;pivot := array[high]&lt;/span&gt;" style="rounded=0;whiteSpace=wrap;html=1;fontFamily=Times New Roman;fontSize=16;" vertex="1" parent="u4W8JW2jcw6BL1xKexpF-1">
          <mxGeometry x="778" y="144" width="210" height="60" as="geometry" />
        </mxCell>
        <mxCell id="BnHpBqEpI4FGYoRIMQ8p-34" style="edgeStyle=orthogonalEdgeStyle;rounded=0;orthogonalLoop=1;jettySize=auto;html=1;exitX=0.5;exitY=1;exitDx=0;exitDy=0;entryX=0.5;entryY=0;entryDx=0;entryDy=0;endArrow=none;endFill=0;fontFamily=Times New Roman;fontSize=16;" edge="1" parent="u4W8JW2jcw6BL1xKexpF-1" source="BnHpBqEpI4FGYoRIMQ8p-28" target="BnHpBqEpI4FGYoRIMQ8p-26">
          <mxGeometry relative="1" as="geometry" />
        </mxCell>
        <mxCell id="BnHpBqEpI4FGYoRIMQ8p-28" value="&lt;span style=&quot;font-size: 16px;&quot;&gt;i := low - 1&lt;/span&gt;" style="rounded=0;whiteSpace=wrap;html=1;fontFamily=Times New Roman;fontSize=16;" vertex="1" parent="u4W8JW2jcw6BL1xKexpF-1">
          <mxGeometry x="778" y="219" width="210" height="60" as="geometry" />
        </mxCell>
        <mxCell id="BnHpBqEpI4FGYoRIMQ8p-36" style="edgeStyle=orthogonalEdgeStyle;rounded=0;orthogonalLoop=1;jettySize=auto;html=1;exitX=0.5;exitY=1;exitDx=0;exitDy=0;exitPerimeter=0;entryX=0.5;entryY=0;entryDx=0;entryDy=0;endArrow=none;endFill=0;fontFamily=Times New Roman;fontSize=16;" edge="1" parent="u4W8JW2jcw6BL1xKexpF-1" source="BnHpBqEpI4FGYoRIMQ8p-30" target="BnHpBqEpI4FGYoRIMQ8p-31">
          <mxGeometry relative="1" as="geometry" />
        </mxCell>
        <mxCell id="BnHpBqEpI4FGYoRIMQ8p-41" style="edgeStyle=orthogonalEdgeStyle;rounded=0;orthogonalLoop=1;jettySize=auto;html=1;exitX=0;exitY=0.5;exitDx=0;exitDy=0;exitPerimeter=0;fontFamily=Times New Roman;fontSize=16;" edge="1" parent="u4W8JW2jcw6BL1xKexpF-1" source="BnHpBqEpI4FGYoRIMQ8p-30">
          <mxGeometry relative="1" as="geometry">
            <mxPoint x="883" y="710" as="targetPoint" />
            <Array as="points">
              <mxPoint x="738" y="409" />
              <mxPoint x="738" y="710" />
              <mxPoint x="883" y="710" />
            </Array>
          </mxGeometry>
        </mxCell>
        <mxCell id="BnHpBqEpI4FGYoRIMQ8p-30" value="&lt;span style=&quot;font-size: 16px;&quot;&gt;array[j] &amp;lt;= pivot?&lt;/span&gt;" style="strokeWidth=1;html=1;shape=mxgraph.flowchart.decision;whiteSpace=wrap;fontFamily=Times New Roman;fontSize=16;" vertex="1" parent="u4W8JW2jcw6BL1xKexpF-1">
          <mxGeometry x="778" y="379" width="210" height="60" as="geometry" />
        </mxCell>
        <mxCell id="BnHpBqEpI4FGYoRIMQ8p-37" style="edgeStyle=orthogonalEdgeStyle;rounded=0;orthogonalLoop=1;jettySize=auto;html=1;exitX=0.5;exitY=1;exitDx=0;exitDy=0;entryX=0.5;entryY=0;entryDx=0;entryDy=0;endArrow=none;endFill=0;fontFamily=Times New Roman;fontSize=16;" edge="1" parent="u4W8JW2jcw6BL1xKexpF-1" source="BnHpBqEpI4FGYoRIMQ8p-31" target="BnHpBqEpI4FGYoRIMQ8p-32">
          <mxGeometry relative="1" as="geometry" />
        </mxCell>
        <mxCell id="BnHpBqEpI4FGYoRIMQ8p-31" value="&lt;span style=&quot;font-size: 16px;&quot;&gt;i := i + 1&lt;/span&gt;" style="rounded=0;whiteSpace=wrap;html=1;fontFamily=Times New Roman;fontSize=16;" vertex="1" parent="u4W8JW2jcw6BL1xKexpF-1">
          <mxGeometry x="778" y="459" width="210" height="60" as="geometry" />
        </mxCell>
        <mxCell id="U9SiQNmFVCmM0cF1h2Pl-2" style="edgeStyle=orthogonalEdgeStyle;rounded=0;orthogonalLoop=1;jettySize=auto;html=1;exitX=0.5;exitY=1;exitDx=0;exitDy=0;entryX=0.5;entryY=1;entryDx=0;entryDy=0;endArrow=none;endFill=0;" edge="1" parent="u4W8JW2jcw6BL1xKexpF-1" source="BnHpBqEpI4FGYoRIMQ8p-32" target="U9SiQNmFVCmM0cF1h2Pl-0">
          <mxGeometry relative="1" as="geometry" />
        </mxCell>
        <mxCell id="BnHpBqEpI4FGYoRIMQ8p-32" value="&lt;span style=&quot;font-size: 16px;&quot;&gt;Обмен значений&amp;nbsp;&lt;br style=&quot;font-size: 16px;&quot;&gt;array[i] и array[j]&lt;br style=&quot;font-size: 16px;&quot;&gt;&lt;/span&gt;" style="rounded=0;whiteSpace=wrap;html=1;fontFamily=Times New Roman;fontSize=16;" vertex="1" parent="u4W8JW2jcw6BL1xKexpF-1">
          <mxGeometry x="778" y="539" width="210" height="60" as="geometry" />
        </mxCell>
        <mxCell id="BnHpBqEpI4FGYoRIMQ8p-35" style="edgeStyle=orthogonalEdgeStyle;rounded=0;orthogonalLoop=1;jettySize=auto;html=1;exitX=0.5;exitY=1;exitDx=0;exitDy=0;entryX=0.5;entryY=0;entryDx=0;entryDy=0;entryPerimeter=0;endArrow=none;endFill=0;fontFamily=Times New Roman;fontSize=16;" edge="1" parent="u4W8JW2jcw6BL1xKexpF-1" source="BnHpBqEpI4FGYoRIMQ8p-26" target="BnHpBqEpI4FGYoRIMQ8p-30">
          <mxGeometry relative="1" as="geometry" />
        </mxCell>
        <mxCell id="BnHpBqEpI4FGYoRIMQ8p-38" value="да" style="text;html=1;align=center;verticalAlign=middle;resizable=0;points=[];autosize=1;strokeColor=none;fillColor=none;fontFamily=Times New Roman;fontSize=16;" vertex="1" parent="u4W8JW2jcw6BL1xKexpF-1">
          <mxGeometry x="888" y="429" width="40" height="30" as="geometry" />
        </mxCell>
        <mxCell id="BnHpBqEpI4FGYoRIMQ8p-43" style="edgeStyle=orthogonalEdgeStyle;rounded=0;orthogonalLoop=1;jettySize=auto;html=1;exitX=0.5;exitY=1;exitDx=0;exitDy=0;entryX=0.5;entryY=0;entryDx=0;entryDy=0;endArrow=none;endFill=0;fontFamily=Times New Roman;fontSize=16;" edge="1" parent="u4W8JW2jcw6BL1xKexpF-1" source="BnHpBqEpI4FGYoRIMQ8p-39" target="BnHpBqEpI4FGYoRIMQ8p-42">
          <mxGeometry relative="1" as="geometry" />
        </mxCell>
        <mxCell id="BnHpBqEpI4FGYoRIMQ8p-39" value="&lt;span style=&quot;font-size: 16px;&quot;&gt;Обмен значений&amp;nbsp;&lt;br style=&quot;font-size: 16px;&quot;&gt;array[i+1] и array[high]&lt;br style=&quot;font-size: 16px;&quot;&gt;&lt;/span&gt;" style="rounded=0;whiteSpace=wrap;html=1;fontFamily=Times New Roman;fontSize=16;" vertex="1" parent="u4W8JW2jcw6BL1xKexpF-1">
          <mxGeometry x="778" y="720" width="210" height="60" as="geometry" />
        </mxCell>
        <mxCell id="BnHpBqEpI4FGYoRIMQ8p-42" value="Конец" style="rounded=1;whiteSpace=wrap;html=1;arcSize=50;fontFamily=Times New Roman;fontSize=16;" vertex="1" parent="u4W8JW2jcw6BL1xKexpF-1">
          <mxGeometry x="778" y="800" width="210" height="60" as="geometry" />
        </mxCell>
        <mxCell id="U9SiQNmFVCmM0cF1h2Pl-3" value="" style="group" vertex="1" connectable="0" parent="u4W8JW2jcw6BL1xKexpF-1">
          <mxGeometry x="778" y="630" width="210" height="60" as="geometry" />
        </mxCell>
        <mxCell id="U9SiQNmFVCmM0cF1h2Pl-0" value="&lt;font style=&quot;font-size: 16px;&quot;&gt;&lt;br style=&quot;font-size: 16px;&quot;&gt;&lt;/font&gt;" style="shape=loopLimit;whiteSpace=wrap;html=1;fontFamily=Times New Roman;fontSize=16;rotation=-180;" vertex="1" parent="U9SiQNmFVCmM0cF1h2Pl-3">
          <mxGeometry width="210" height="60" as="geometry" />
        </mxCell>
        <mxCell id="U9SiQNmFVCmM0cF1h2Pl-1" value="&lt;font style=&quot;font-size: 16px;&quot; face=&quot;Times New Roman&quot;&gt;j := j + 1&amp;nbsp;&lt;/font&gt;" style="text;html=1;align=center;verticalAlign=middle;resizable=0;points=[];autosize=1;strokeColor=none;fillColor=none;" vertex="1" parent="U9SiQNmFVCmM0cF1h2Pl-3">
          <mxGeometry x="65" y="15" width="80" height="30" as="geometry" />
        </mxCell>
        <mxCell id="U9SiQNmFVCmM0cF1h2Pl-4" style="edgeStyle=orthogonalEdgeStyle;rounded=0;orthogonalLoop=1;jettySize=auto;html=1;exitX=0.5;exitY=0;exitDx=0;exitDy=0;entryX=0.5;entryY=0;entryDx=0;entryDy=0;endArrow=none;endFill=0;" edge="1" parent="u4W8JW2jcw6BL1xKexpF-1" source="U9SiQNmFVCmM0cF1h2Pl-0" target="BnHpBqEpI4FGYoRIMQ8p-39">
          <mxGeometry relative="1" as="geometry" />
        </mxCell>
      </root>
    </mxGraphModel>
  </diagram>
  <diagram id="tLtt_ifOD3I1Y4SzoygK" name="Блинная">
    <mxGraphModel dx="1434" dy="870" grid="1" gridSize="10" guides="1" tooltips="1" connect="1" arrows="1" fold="1" page="1" pageScale="1" pageWidth="827" pageHeight="1169" math="0" shadow="0">
      <root>
        <mxCell id="Z0LjklbWi-RaVmXzwE2c-0" />
        <mxCell id="Z0LjklbWi-RaVmXzwE2c-1" parent="Z0LjklbWi-RaVmXzwE2c-0" />
        <mxCell id="fJNbpkj1mjjdAWqwB18C-2" value="&lt;div style=&quot;text-align: left&quot;&gt;&lt;span style=&quot;font-size: 14px&quot;&gt;Блинная сортировка.&lt;/span&gt;&lt;/div&gt;&lt;font style=&quot;font-size: 14px&quot;&gt;&lt;div style=&quot;text-align: left&quot;&gt;&lt;span&gt;Входные данные: array -- массив&lt;/span&gt;&lt;/div&gt;&lt;div style=&quot;text-align: left&quot;&gt;&lt;span&gt;целых чисел,&lt;/span&gt;&lt;/div&gt;&lt;div style=&quot;text-align: left&quot;&gt;&lt;span&gt;n -- размер массива (целое)&lt;/span&gt;&lt;/div&gt;&lt;div style=&quot;text-align: left&quot;&gt;&lt;span&gt;Выходные данные: отсортированный&lt;/span&gt;&lt;/div&gt;&lt;div style=&quot;text-align: left&quot;&gt;&lt;span&gt;массив целых чисел&lt;/span&gt;&lt;/div&gt;&lt;/font&gt;" style="text;html=1;align=center;verticalAlign=middle;resizable=0;points=[];autosize=1;strokeColor=none;" parent="Z0LjklbWi-RaVmXzwE2c-1" vertex="1">
          <mxGeometry x="319.99666666666667" y="80.00333333333333" width="270" height="110" as="geometry" />
        </mxCell>
        <mxCell id="mo8ngpRgea4bT-yvmx7e-38" style="edgeStyle=orthogonalEdgeStyle;rounded=0;orthogonalLoop=1;jettySize=auto;html=1;endArrow=none;endFill=0;dashed=1;" edge="1" parent="Z0LjklbWi-RaVmXzwE2c-1" source="fJNbpkj1mjjdAWqwB18C-3" target="mo8ngpRgea4bT-yvmx7e-36">
          <mxGeometry relative="1" as="geometry" />
        </mxCell>
        <mxCell id="fJNbpkj1mjjdAWqwB18C-3" value="" style="strokeWidth=1;html=1;shape=mxgraph.flowchart.annotation_2;align=left;labelPosition=right;pointerEvents=1;" parent="Z0LjklbWi-RaVmXzwE2c-1" vertex="1">
          <mxGeometry x="320" y="86.66" width="19.02" height="96.67" as="geometry" />
        </mxCell>
        <mxCell id="mo8ngpRgea4bT-yvmx7e-21" style="edgeStyle=orthogonalEdgeStyle;rounded=0;orthogonalLoop=1;jettySize=auto;html=1;exitX=0.5;exitY=1;exitDx=0;exitDy=0;entryX=0.5;entryY=0;entryDx=0;entryDy=0;endArrow=none;endFill=0;" edge="1" parent="Z0LjklbWi-RaVmXzwE2c-1" source="mo8ngpRgea4bT-yvmx7e-0" target="mo8ngpRgea4bT-yvmx7e-19">
          <mxGeometry relative="1" as="geometry" />
        </mxCell>
        <mxCell id="mo8ngpRgea4bT-yvmx7e-37" style="edgeStyle=orthogonalEdgeStyle;rounded=0;orthogonalLoop=1;jettySize=auto;html=1;exitX=0.5;exitY=0;exitDx=0;exitDy=0;entryX=0.5;entryY=1;entryDx=0;entryDy=0;endArrow=none;endFill=0;" edge="1" parent="Z0LjklbWi-RaVmXzwE2c-1" source="mo8ngpRgea4bT-yvmx7e-0" target="mo8ngpRgea4bT-yvmx7e-36">
          <mxGeometry relative="1" as="geometry" />
        </mxCell>
        <mxCell id="mo8ngpRgea4bT-yvmx7e-0" value="&lt;font style=&quot;font-size: 16px;&quot;&gt;Цикл &lt;br&gt;пока&amp;nbsp;n &amp;gt; 1&lt;br style=&quot;font-size: 16px;&quot;&gt;&lt;/font&gt;" style="shape=loopLimit;whiteSpace=wrap;html=1;fontFamily=Times New Roman;fontSize=16;" vertex="1" parent="Z0LjklbWi-RaVmXzwE2c-1">
          <mxGeometry x="78.67000000000002" y="185" width="210" height="60" as="geometry" />
        </mxCell>
        <mxCell id="mo8ngpRgea4bT-yvmx7e-34" style="edgeStyle=orthogonalEdgeStyle;rounded=0;orthogonalLoop=1;jettySize=auto;html=1;exitX=0;exitY=0.5;exitDx=0;exitDy=0;exitPerimeter=0;" edge="1" parent="Z0LjklbWi-RaVmXzwE2c-1" source="mo8ngpRgea4bT-yvmx7e-5">
          <mxGeometry relative="1" as="geometry">
            <mxPoint x="180" y="705" as="targetPoint" />
            <Array as="points">
              <mxPoint x="10" y="365" />
              <mxPoint x="10" y="705" />
            </Array>
          </mxGeometry>
        </mxCell>
        <mxCell id="mo8ngpRgea4bT-yvmx7e-5" value="&lt;span style=&quot;font-size: 16px;&quot;&gt;max_i не равен&lt;br&gt;&amp;nbsp;n - 1?&lt;/span&gt;" style="strokeWidth=1;html=1;shape=mxgraph.flowchart.decision;whiteSpace=wrap;fontFamily=Times New Roman;fontSize=16;" vertex="1" parent="Z0LjklbWi-RaVmXzwE2c-1">
          <mxGeometry x="78.67000000000002" y="335" width="210" height="60" as="geometry" />
        </mxCell>
        <mxCell id="mo8ngpRgea4bT-yvmx7e-11" value="да" style="text;html=1;align=center;verticalAlign=middle;resizable=0;points=[];autosize=1;strokeColor=none;fillColor=none;fontFamily=Times New Roman;fontSize=16;" vertex="1" parent="Z0LjklbWi-RaVmXzwE2c-1">
          <mxGeometry x="188.67000000000002" y="395" width="40" height="30" as="geometry" />
        </mxCell>
        <mxCell id="mo8ngpRgea4bT-yvmx7e-33" value="" style="edgeStyle=orthogonalEdgeStyle;rounded=0;orthogonalLoop=1;jettySize=auto;html=1;" edge="1" parent="Z0LjklbWi-RaVmXzwE2c-1" source="mo8ngpRgea4bT-yvmx7e-14" target="mo8ngpRgea4bT-yvmx7e-17">
          <mxGeometry relative="1" as="geometry" />
        </mxCell>
        <mxCell id="mo8ngpRgea4bT-yvmx7e-14" value="Конец" style="rounded=1;whiteSpace=wrap;html=1;arcSize=50;fontFamily=Times New Roman;fontSize=16;" vertex="1" parent="Z0LjklbWi-RaVmXzwE2c-1">
          <mxGeometry x="80" y="805" width="210" height="60" as="geometry" />
        </mxCell>
        <mxCell id="mo8ngpRgea4bT-yvmx7e-15" value="" style="group" vertex="1" connectable="0" parent="Z0LjklbWi-RaVmXzwE2c-1">
          <mxGeometry x="80" y="725" width="210" height="60" as="geometry" />
        </mxCell>
        <mxCell id="mo8ngpRgea4bT-yvmx7e-16" value="&lt;font style=&quot;font-size: 16px;&quot;&gt;&lt;br style=&quot;font-size: 16px;&quot;&gt;&lt;/font&gt;" style="shape=loopLimit;whiteSpace=wrap;html=1;fontFamily=Times New Roman;fontSize=16;rotation=-180;" vertex="1" parent="mo8ngpRgea4bT-yvmx7e-15">
          <mxGeometry width="210" height="60" as="geometry" />
        </mxCell>
        <mxCell id="mo8ngpRgea4bT-yvmx7e-17" value="&lt;font style=&quot;font-size: 16px;&quot; face=&quot;Times New Roman&quot;&gt;n := n - 1&lt;/font&gt;" style="text;html=1;align=center;verticalAlign=middle;resizable=0;points=[];autosize=1;strokeColor=none;fillColor=none;" vertex="1" parent="mo8ngpRgea4bT-yvmx7e-15">
          <mxGeometry x="65" y="15" width="80" height="30" as="geometry" />
        </mxCell>
        <mxCell id="mo8ngpRgea4bT-yvmx7e-19" value="&lt;span style=&quot;font-size: 16px;&quot;&gt;Найти индекс max_i максимального элемента&lt;br&gt;массива&lt;br&gt;&lt;/span&gt;" style="rounded=0;whiteSpace=wrap;html=1;fontFamily=Times New Roman;fontSize=16;" vertex="1" parent="Z0LjklbWi-RaVmXzwE2c-1">
          <mxGeometry x="78.66999999999996" y="265" width="210" height="60" as="geometry" />
        </mxCell>
        <mxCell id="mo8ngpRgea4bT-yvmx7e-20" style="edgeStyle=orthogonalEdgeStyle;rounded=0;orthogonalLoop=1;jettySize=auto;html=1;exitX=0.5;exitY=1;exitDx=0;exitDy=0;entryX=0.5;entryY=0;entryDx=0;entryDy=0;entryPerimeter=0;endArrow=none;endFill=0;" edge="1" parent="Z0LjklbWi-RaVmXzwE2c-1" source="mo8ngpRgea4bT-yvmx7e-19" target="mo8ngpRgea4bT-yvmx7e-5">
          <mxGeometry relative="1" as="geometry" />
        </mxCell>
        <mxCell id="mo8ngpRgea4bT-yvmx7e-24" style="edgeStyle=orthogonalEdgeStyle;rounded=0;orthogonalLoop=1;jettySize=auto;html=1;exitX=0.5;exitY=1;exitDx=0;exitDy=0;exitPerimeter=0;entryX=0.5;entryY=0;entryDx=0;entryDy=0;endArrow=none;endFill=0;" edge="1" parent="Z0LjklbWi-RaVmXzwE2c-1" source="mo8ngpRgea4bT-yvmx7e-22" target="mo8ngpRgea4bT-yvmx7e-29">
          <mxGeometry relative="1" as="geometry">
            <mxPoint x="-26.329999999999927" y="515" as="targetPoint" />
          </mxGeometry>
        </mxCell>
        <mxCell id="mo8ngpRgea4bT-yvmx7e-35" style="edgeStyle=orthogonalEdgeStyle;rounded=0;orthogonalLoop=1;jettySize=auto;html=1;exitX=0;exitY=0.5;exitDx=0;exitDy=0;exitPerimeter=0;" edge="1" parent="Z0LjklbWi-RaVmXzwE2c-1" source="mo8ngpRgea4bT-yvmx7e-22">
          <mxGeometry relative="1" as="geometry">
            <mxPoint x="184" y="595" as="targetPoint" />
            <Array as="points">
              <mxPoint x="50" y="455" />
              <mxPoint x="50" y="595" />
            </Array>
          </mxGeometry>
        </mxCell>
        <mxCell id="mo8ngpRgea4bT-yvmx7e-22" value="&lt;span style=&quot;font-size: 16px;&quot;&gt;max_i не равен 0?&lt;/span&gt;" style="strokeWidth=1;html=1;shape=mxgraph.flowchart.decision;whiteSpace=wrap;fontFamily=Times New Roman;fontSize=16;" vertex="1" parent="Z0LjklbWi-RaVmXzwE2c-1">
          <mxGeometry x="78.67000000000002" y="425" width="210" height="60" as="geometry" />
        </mxCell>
        <mxCell id="mo8ngpRgea4bT-yvmx7e-23" style="edgeStyle=orthogonalEdgeStyle;rounded=0;orthogonalLoop=1;jettySize=auto;html=1;exitX=0.5;exitY=1;exitDx=0;exitDy=0;exitPerimeter=0;entryX=0.5;entryY=0;entryDx=0;entryDy=0;entryPerimeter=0;endArrow=none;endFill=0;" edge="1" parent="Z0LjklbWi-RaVmXzwE2c-1" source="mo8ngpRgea4bT-yvmx7e-5" target="mo8ngpRgea4bT-yvmx7e-22">
          <mxGeometry relative="1" as="geometry" />
        </mxCell>
        <mxCell id="mo8ngpRgea4bT-yvmx7e-25" value="да" style="text;html=1;align=center;verticalAlign=middle;resizable=0;points=[];autosize=1;strokeColor=none;fillColor=none;fontFamily=Times New Roman;fontSize=16;" vertex="1" parent="Z0LjklbWi-RaVmXzwE2c-1">
          <mxGeometry x="188.67000000000002" y="485" width="40" height="30" as="geometry" />
        </mxCell>
        <mxCell id="mo8ngpRgea4bT-yvmx7e-32" style="edgeStyle=orthogonalEdgeStyle;rounded=0;orthogonalLoop=1;jettySize=auto;html=1;exitX=0.5;exitY=1;exitDx=0;exitDy=0;endArrow=none;endFill=0;" edge="1" parent="Z0LjklbWi-RaVmXzwE2c-1" source="mo8ngpRgea4bT-yvmx7e-27" target="mo8ngpRgea4bT-yvmx7e-16">
          <mxGeometry relative="1" as="geometry" />
        </mxCell>
        <mxCell id="mo8ngpRgea4bT-yvmx7e-27" value="&lt;span style=&quot;color: rgb(0, 0, 0); font-family: &amp;quot;Times New Roman&amp;quot;; font-size: 16px; font-style: normal; font-variant-ligatures: normal; font-variant-caps: normal; font-weight: 400; letter-spacing: normal; orphans: 2; text-align: center; text-indent: 0px; text-transform: none; widows: 2; word-spacing: 0px; -webkit-text-stroke-width: 0px; background-color: rgb(251, 251, 251); text-decoration-thickness: initial; text-decoration-style: initial; text-decoration-color: initial; float: none; display: inline !important;&quot;&gt;Перевернуть элементы массива&lt;/span&gt;&lt;br style=&quot;border-color: var(--border-color); color: rgb(0, 0, 0); font-family: &amp;quot;Times New Roman&amp;quot;; font-size: 16px; font-style: normal; font-variant-ligatures: normal; font-variant-caps: normal; font-weight: 400; letter-spacing: normal; orphans: 2; text-align: center; text-indent: 0px; text-transform: none; widows: 2; word-spacing: 0px; -webkit-text-stroke-width: 0px; background-color: rgb(251, 251, 251); text-decoration-thickness: initial; text-decoration-style: initial; text-decoration-color: initial;&quot;&gt;&lt;span style=&quot;color: rgb(0, 0, 0); font-family: &amp;quot;Times New Roman&amp;quot;; font-size: 16px; font-style: normal; font-variant-ligatures: normal; font-variant-caps: normal; font-weight: 400; letter-spacing: normal; orphans: 2; text-align: center; text-indent: 0px; text-transform: none; widows: 2; word-spacing: 0px; -webkit-text-stroke-width: 0px; background-color: rgb(251, 251, 251); text-decoration-thickness: initial; text-decoration-style: initial; text-decoration-color: initial; float: none; display: inline !important;&quot;&gt;flip(array, n - 1)&lt;/span&gt;" style="shape=process;whiteSpace=wrap;html=1;backgroundOutline=1;" vertex="1" parent="Z0LjklbWi-RaVmXzwE2c-1">
          <mxGeometry x="78.66999999999996" y="615" width="211.33" height="60" as="geometry" />
        </mxCell>
        <mxCell id="mo8ngpRgea4bT-yvmx7e-30" style="edgeStyle=orthogonalEdgeStyle;rounded=0;orthogonalLoop=1;jettySize=auto;html=1;exitX=0.5;exitY=1;exitDx=0;exitDy=0;entryX=0.5;entryY=0;entryDx=0;entryDy=0;endArrow=none;endFill=0;" edge="1" parent="Z0LjklbWi-RaVmXzwE2c-1" source="mo8ngpRgea4bT-yvmx7e-29" target="mo8ngpRgea4bT-yvmx7e-27">
          <mxGeometry relative="1" as="geometry" />
        </mxCell>
        <mxCell id="mo8ngpRgea4bT-yvmx7e-29" value="&lt;span style=&quot;color: rgb(0, 0, 0); font-family: &amp;quot;Times New Roman&amp;quot;; font-size: 16px; font-style: normal; font-variant-ligatures: normal; font-variant-caps: normal; font-weight: 400; letter-spacing: normal; orphans: 2; text-align: center; text-indent: 0px; text-transform: none; widows: 2; word-spacing: 0px; -webkit-text-stroke-width: 0px; background-color: rgb(251, 251, 251); text-decoration-thickness: initial; text-decoration-style: initial; text-decoration-color: initial; float: none; display: inline !important;&quot;&gt;Перевернуть элементы массива&lt;/span&gt;&lt;br style=&quot;border-color: var(--border-color); color: rgb(0, 0, 0); font-family: &amp;quot;Times New Roman&amp;quot;; font-size: 16px; font-style: normal; font-variant-ligatures: normal; font-variant-caps: normal; font-weight: 400; letter-spacing: normal; orphans: 2; text-align: center; text-indent: 0px; text-transform: none; widows: 2; word-spacing: 0px; -webkit-text-stroke-width: 0px; background-color: rgb(251, 251, 251); text-decoration-thickness: initial; text-decoration-style: initial; text-decoration-color: initial;&quot;&gt;&lt;span style=&quot;color: rgb(0, 0, 0); font-family: &amp;quot;Times New Roman&amp;quot;; font-size: 16px; font-style: normal; font-variant-ligatures: normal; font-variant-caps: normal; font-weight: 400; letter-spacing: normal; orphans: 2; text-align: center; text-indent: 0px; text-transform: none; widows: 2; word-spacing: 0px; -webkit-text-stroke-width: 0px; background-color: rgb(251, 251, 251); text-decoration-thickness: initial; text-decoration-style: initial; text-decoration-color: initial; float: none; display: inline !important;&quot;&gt;flip(array, max_i)&lt;/span&gt;" style="shape=process;whiteSpace=wrap;html=1;backgroundOutline=1;" vertex="1" parent="Z0LjklbWi-RaVmXzwE2c-1">
          <mxGeometry x="78.66999999999996" y="515" width="211.33" height="60" as="geometry" />
        </mxCell>
        <mxCell id="mo8ngpRgea4bT-yvmx7e-36" value="Начало" style="rounded=1;whiteSpace=wrap;html=1;arcSize=50;fontFamily=Times New Roman;fontSize=16;" vertex="1" parent="Z0LjklbWi-RaVmXzwE2c-1">
          <mxGeometry x="78.66999999999996" y="105" width="210" height="60" as="geometry" />
        </mxCell>
        <mxCell id="mo8ngpRgea4bT-yvmx7e-41" value="&lt;div style=&quot;text-align: left&quot;&gt;&lt;span style=&quot;font-size: 14px&quot;&gt;Переворачивание элементов&amp;nbsp;&lt;/span&gt;&lt;/div&gt;&lt;div style=&quot;text-align: left&quot;&gt;&lt;span style=&quot;font-size: 14px&quot;&gt;массива flip.&lt;/span&gt;&lt;/div&gt;&lt;font style=&quot;font-size: 14px&quot;&gt;&lt;div style=&quot;text-align: left&quot;&gt;&lt;span&gt;Входные данные: array -- массив&lt;/span&gt;&lt;/div&gt;&lt;div style=&quot;text-align: left&quot;&gt;&lt;span&gt;целых чисел,&lt;/span&gt;&lt;/div&gt;&lt;div style=&quot;text-align: left&quot;&gt;&lt;span&gt;k -- индекс массива&lt;/span&gt;&lt;/div&gt;&lt;div style=&quot;text-align: left&quot;&gt;&lt;span&gt;Выходные данные: массив&amp;nbsp;&lt;/span&gt;&lt;/div&gt;&lt;div style=&quot;text-align: left&quot;&gt;&lt;span&gt;измененных позиций чисел&lt;/span&gt;&lt;/div&gt;&lt;/font&gt;" style="text;html=1;align=center;verticalAlign=middle;resizable=0;points=[];autosize=1;strokeColor=none;" vertex="1" parent="Z0LjklbWi-RaVmXzwE2c-1">
          <mxGeometry x="686.3266666666667" y="230.00333333333333" width="240" height="130" as="geometry" />
        </mxCell>
        <mxCell id="mo8ngpRgea4bT-yvmx7e-44" style="edgeStyle=orthogonalEdgeStyle;rounded=0;orthogonalLoop=1;jettySize=auto;html=1;exitX=0;exitY=0.5;exitDx=0;exitDy=0;exitPerimeter=0;entryX=1;entryY=0.5;entryDx=0;entryDy=0;endArrow=none;endFill=0;dashed=1;" edge="1" parent="Z0LjklbWi-RaVmXzwE2c-1" source="mo8ngpRgea4bT-yvmx7e-42" target="mo8ngpRgea4bT-yvmx7e-43">
          <mxGeometry relative="1" as="geometry" />
        </mxCell>
        <mxCell id="mo8ngpRgea4bT-yvmx7e-42" value="" style="strokeWidth=1;html=1;shape=mxgraph.flowchart.annotation_2;align=left;labelPosition=right;pointerEvents=1;" vertex="1" parent="Z0LjklbWi-RaVmXzwE2c-1">
          <mxGeometry x="671.33" y="235" width="19.02" height="120.01" as="geometry" />
        </mxCell>
        <mxCell id="KNc56-JCYN7FG93iVJA1-8" style="edgeStyle=orthogonalEdgeStyle;rounded=0;orthogonalLoop=1;jettySize=auto;html=1;exitX=0.5;exitY=1;exitDx=0;exitDy=0;entryX=0.5;entryY=0;entryDx=0;entryDy=0;endArrow=none;endFill=0;" edge="1" parent="Z0LjklbWi-RaVmXzwE2c-1" source="mo8ngpRgea4bT-yvmx7e-43" target="mo8ngpRgea4bT-yvmx7e-45">
          <mxGeometry relative="1" as="geometry" />
        </mxCell>
        <mxCell id="mo8ngpRgea4bT-yvmx7e-43" value="Начало" style="rounded=1;whiteSpace=wrap;html=1;arcSize=50;fontFamily=Times New Roman;fontSize=16;" vertex="1" parent="Z0LjklbWi-RaVmXzwE2c-1">
          <mxGeometry x="430" y="265.01" width="210" height="60" as="geometry" />
        </mxCell>
        <mxCell id="KNc56-JCYN7FG93iVJA1-9" style="edgeStyle=orthogonalEdgeStyle;rounded=0;orthogonalLoop=1;jettySize=auto;html=1;exitX=0.5;exitY=1;exitDx=0;exitDy=0;entryX=0.5;entryY=0;entryDx=0;entryDy=0;endArrow=none;endFill=0;" edge="1" parent="Z0LjklbWi-RaVmXzwE2c-1" source="mo8ngpRgea4bT-yvmx7e-45" target="mo8ngpRgea4bT-yvmx7e-47">
          <mxGeometry relative="1" as="geometry" />
        </mxCell>
        <mxCell id="mo8ngpRgea4bT-yvmx7e-45" value="&lt;span style=&quot;font-size: 16px;&quot;&gt;Нижний индекс массива&lt;br&gt;left := 0&lt;br&gt;&lt;/span&gt;" style="rounded=0;whiteSpace=wrap;html=1;fontFamily=Times New Roman;fontSize=16;" vertex="1" parent="Z0LjklbWi-RaVmXzwE2c-1">
          <mxGeometry x="430" y="348.34" width="210" height="60" as="geometry" />
        </mxCell>
        <mxCell id="KNc56-JCYN7FG93iVJA1-10" style="edgeStyle=orthogonalEdgeStyle;rounded=0;orthogonalLoop=1;jettySize=auto;html=1;exitX=0.5;exitY=1;exitDx=0;exitDy=0;entryX=0.5;entryY=0;entryDx=0;entryDy=0;endArrow=none;endFill=0;" edge="1" parent="Z0LjklbWi-RaVmXzwE2c-1" source="mo8ngpRgea4bT-yvmx7e-47" target="KNc56-JCYN7FG93iVJA1-0">
          <mxGeometry relative="1" as="geometry" />
        </mxCell>
        <mxCell id="mo8ngpRgea4bT-yvmx7e-47" value="&lt;font style=&quot;font-size: 16px;&quot;&gt;Цикл &lt;br&gt;пока left &amp;lt; k&lt;br style=&quot;font-size: 16px;&quot;&gt;&lt;/font&gt;" style="shape=loopLimit;whiteSpace=wrap;html=1;fontFamily=Times New Roman;fontSize=16;" vertex="1" parent="Z0LjklbWi-RaVmXzwE2c-1">
          <mxGeometry x="430" y="425.01" width="210" height="60" as="geometry" />
        </mxCell>
        <mxCell id="KNc56-JCYN7FG93iVJA1-11" style="edgeStyle=orthogonalEdgeStyle;rounded=0;orthogonalLoop=1;jettySize=auto;html=1;exitX=0.5;exitY=1;exitDx=0;exitDy=0;entryX=0.5;entryY=0;entryDx=0;entryDy=0;endArrow=none;endFill=0;" edge="1" parent="Z0LjklbWi-RaVmXzwE2c-1" source="KNc56-JCYN7FG93iVJA1-0" target="KNc56-JCYN7FG93iVJA1-1">
          <mxGeometry relative="1" as="geometry" />
        </mxCell>
        <mxCell id="KNc56-JCYN7FG93iVJA1-0" value="&lt;span style=&quot;font-size: 16px;&quot;&gt;Обмен значений&lt;br&gt;array[left] и array[k]&lt;br&gt;&lt;/span&gt;" style="rounded=0;whiteSpace=wrap;html=1;fontFamily=Times New Roman;fontSize=16;" vertex="1" parent="Z0LjklbWi-RaVmXzwE2c-1">
          <mxGeometry x="430" y="505.01" width="210" height="60" as="geometry" />
        </mxCell>
        <mxCell id="KNc56-JCYN7FG93iVJA1-12" style="edgeStyle=orthogonalEdgeStyle;rounded=0;orthogonalLoop=1;jettySize=auto;html=1;exitX=0.5;exitY=1;exitDx=0;exitDy=0;entryX=0.5;entryY=1;entryDx=0;entryDy=0;endArrow=none;endFill=0;" edge="1" parent="Z0LjklbWi-RaVmXzwE2c-1" source="KNc56-JCYN7FG93iVJA1-1" target="KNc56-JCYN7FG93iVJA1-4">
          <mxGeometry relative="1" as="geometry" />
        </mxCell>
        <mxCell id="KNc56-JCYN7FG93iVJA1-1" value="&lt;span style=&quot;font-size: 16px;&quot;&gt;k := k - 1&lt;br&gt;&lt;/span&gt;" style="rounded=0;whiteSpace=wrap;html=1;fontFamily=Times New Roman;fontSize=16;" vertex="1" parent="Z0LjklbWi-RaVmXzwE2c-1">
          <mxGeometry x="430" y="590.01" width="210" height="60" as="geometry" />
        </mxCell>
        <mxCell id="KNc56-JCYN7FG93iVJA1-3" value="" style="group" vertex="1" connectable="0" parent="Z0LjklbWi-RaVmXzwE2c-1">
          <mxGeometry x="430" y="675.01" width="210" height="60" as="geometry" />
        </mxCell>
        <mxCell id="KNc56-JCYN7FG93iVJA1-4" value="&lt;font style=&quot;font-size: 16px;&quot;&gt;&lt;br style=&quot;font-size: 16px;&quot;&gt;&lt;/font&gt;" style="shape=loopLimit;whiteSpace=wrap;html=1;fontFamily=Times New Roman;fontSize=16;rotation=-180;" vertex="1" parent="KNc56-JCYN7FG93iVJA1-3">
          <mxGeometry width="210" height="60" as="geometry" />
        </mxCell>
        <mxCell id="KNc56-JCYN7FG93iVJA1-5" value="&lt;font style=&quot;font-size: 16px;&quot; face=&quot;Times New Roman&quot;&gt;left := left + 1&lt;/font&gt;" style="text;html=1;align=center;verticalAlign=middle;resizable=0;points=[];autosize=1;strokeColor=none;fillColor=none;" vertex="1" parent="KNc56-JCYN7FG93iVJA1-3">
          <mxGeometry x="50" y="15" width="110" height="30" as="geometry" />
        </mxCell>
        <mxCell id="KNc56-JCYN7FG93iVJA1-7" value="Конец" style="rounded=1;whiteSpace=wrap;html=1;arcSize=50;fontFamily=Times New Roman;fontSize=16;" vertex="1" parent="Z0LjklbWi-RaVmXzwE2c-1">
          <mxGeometry x="430" y="765.01" width="210" height="60" as="geometry" />
        </mxCell>
        <mxCell id="KNc56-JCYN7FG93iVJA1-13" style="edgeStyle=orthogonalEdgeStyle;rounded=0;orthogonalLoop=1;jettySize=auto;html=1;exitX=0.5;exitY=0;exitDx=0;exitDy=0;entryX=0.5;entryY=0;entryDx=0;entryDy=0;endArrow=none;endFill=0;" edge="1" parent="Z0LjklbWi-RaVmXzwE2c-1" source="KNc56-JCYN7FG93iVJA1-4" target="KNc56-JCYN7FG93iVJA1-7">
          <mxGeometry relative="1" as="geometry" />
        </mxCell>
      </root>
    </mxGraphModel>
  </diagram>
</mxfile>
